<svg width="24" height="24" viewBox="0 0 24 24" fill="none" xmlns="http://www.w3.org/2000/svg">
<path d="M3.6 1.2C2.93726 1.2 2.4 1.73726 2.4 2.4C2.4 3.06274 2.93726 3.6 3.6 3.6H5.06307L5.42974 5.06669C5.43359 5.08365 5.4378 5.10047 5.44236 5.11715L7.07103 11.6319L5.99994 12.7029C4.48803 14.2149 5.55882 16.8 7.697 16.8H17.9999C18.6627 16.8 19.1999 16.2627 19.1999 15.6C19.1999 14.9373 18.6627 14.4 17.9999 14.4L7.697 14.4L8.897 13.2H16.8C17.2545 13.2 17.67 12.9432 17.8733 12.5367L21.4733 5.33666C21.6593 4.96467 21.6394 4.5229 21.4208 4.16912C21.2021 3.81534 20.8159 3.6 20.4 3.6H7.53693L7.16417 2.10896C7.03062 1.57476 6.55064 1.2 6 1.2H3.6Z" fill="#937DC2"/>
<path d="M19.2 19.8C19.2 20.7941 18.3941 21.6 17.4 21.6C16.4059 21.6 15.6 20.7941 15.6 19.8C15.6 18.8059 16.4059 18 17.4 18C18.3941 18 19.2 18.8059 19.2 19.8Z" fill="#937DC2"/>
<path d="M7.8 21.6C8.79411 21.6 9.6 20.7941 9.6 19.8C9.6 18.8059 8.79411 18 7.8 18C6.80589 18 6 18.8059 6 19.8C6 20.7941 6.80589 21.6 7.8 21.6Z" fill="#937DC2"/>
</svg>
