<svg width="25" height="25" viewBox="0 0 25 25" fill="none" xmlns="http://www.w3.org/2000/svg">
<path d="M3.88526 1.57275C3.2216 1.57275 2.68359 2.11076 2.68359 2.77442C2.68359 3.43808 3.2216 3.97609 3.88526 3.97609H5.35036L5.71754 5.44482C5.7214 5.4618 5.72561 5.47864 5.73018 5.49534L7.36111 12.0191L6.28854 13.0917C4.77452 14.6057 5.8468 17.1944 7.98795 17.1944H18.3052C18.9689 17.1944 19.5069 16.6564 19.5069 15.9928C19.5069 15.3291 18.9689 14.7911 18.3052 14.7911L7.98795 14.7911L9.18962 13.5894H17.1036C17.5588 13.5894 17.9748 13.3323 18.1784 12.9252L21.7834 5.71516C21.9696 5.34265 21.9497 4.90027 21.7308 4.546C21.5118 4.19173 21.1251 3.97609 20.7086 3.97609H7.82766L7.45438 2.48297C7.32065 1.94803 6.84 1.57275 6.28859 1.57275H3.88526Z" fill="white"/>
<path d="M19.5069 20.1986C19.5069 21.1941 18.6999 22.0011 17.7044 22.0011C16.7089 22.0011 15.9019 21.1941 15.9019 20.1986C15.9019 19.2031 16.7089 18.3961 17.7044 18.3961C18.6999 18.3961 19.5069 19.2031 19.5069 20.1986Z" fill="white"/>
<path d="M8.09109 22.0011C9.08659 22.0011 9.89359 21.1941 9.89359 20.1986C9.89359 19.2031 9.08659 18.3961 8.09109 18.3961C7.0956 18.3961 6.28859 19.2031 6.28859 20.1986C6.28859 21.1941 7.0956 22.0011 8.09109 22.0011Z" fill="white"/>
</svg>
