<svg width="28" height="29" viewBox="0 0 28 29" fill="none" xmlns="http://www.w3.org/2000/svg">
<g clip-path="url(#clip0_1_628)">
<path d="M23.134 0.776367H4.00098C1.80098 0.776367 0.000976562 2.57923 0.000976562 4.78273V23.9482C0.000976562 26.1517 1.80098 27.9545 4.00098 27.9545H23.136C25.336 27.9545 27.136 26.1517 27.136 23.9482V4.78273C27.134 2.57923 25.336 0.776367 23.134 0.776367ZM22.877 15.2824H19.657V26.9509H14.839V15.2824H12.429V11.26H14.839V8.84619C14.839 5.56497 16.199 3.61287 20.069 3.61287H23.286V7.63426H21.274C19.77 7.63426 19.67 8.19816 19.67 9.24682L19.657 11.26H23.302L22.876 15.2824H22.877Z" fill="white"/>
</g>
<defs>
<clipPath id="clip0_1_628">
<rect width="28" height="28.0445" fill="white" transform="translate(0.000976562 0.775146)"/>
</clipPath>
</defs>
</svg>
