<svg width="28" height="28" viewBox="0 0 28 28" fill="none" xmlns="http://www.w3.org/2000/svg">
<path d="M14.0016 9.30715C11.5314 9.30715 9.51557 11.3262 9.51557 13.8003C9.51557 16.2745 11.5314 18.2935 14.0016 18.2935C16.4718 18.2935 18.4877 16.2745 18.4877 13.8003C18.4877 11.3262 16.4718 9.30715 14.0016 9.30715ZM27.5016 13.8001C27.5016 11.9395 27.606 10.1488 27.5016 8.29157C27.3973 6.13429 28.0766 2.85794 26.5016 1.28043C24.9233 -0.300449 21.6555 0.383328 19.5016 0.278835C17.6439 0.174342 15.856 0.278835 14.0016 0.278835C12.1439 0.278835 10.3559 0.174342 8.50162 0.278835C6.34777 0.383328 3.07664 -0.297141 1.50164 1.28037C-0.0767266 2.86124 0.605969 6.13429 0.501643 8.29157C0.397316 10.1522 0.501617 11.9429 0.501617 13.8001C0.501617 15.6574 0.397316 17.5048 0.501643 19.3621C0.605969 21.5193 -0.0733827 24.7427 1.50162 26.3202C3.07998 27.9011 6.34777 27.2173 8.50162 27.3218C10.3593 27.4263 12.1473 27.3218 14.0016 27.3218C15.8593 27.3218 17.6473 27.4263 19.5016 27.3218C21.6555 27.2173 24.9266 27.8977 26.5016 26.3202C28.08 24.7393 27.3973 21.9671 27.5016 19.8099C27.6093 17.9526 27.5016 15.6608 27.5016 13.8001ZM14.0016 20.7137C10.1819 20.7137 7.09922 17.6261 7.09922 13.8003C7.09922 9.97456 10.1819 6.88696 14.0016 6.88696C17.8213 6.88696 20.904 9.97456 20.904 13.8003C20.904 17.6261 17.8213 20.7137 14.0016 20.7137ZM21.1867 8.2184C20.2949 8.2184 19.5747 7.49706 19.5747 6.60382C19.5747 5.71057 20.2949 4.98923 21.1867 4.98923C22.0786 4.98923 22.7987 5.71057 22.7987 6.60382C22.799 6.81592 22.7575 7.026 22.6766 7.22201C22.5957 7.41802 22.4769 7.59611 22.3272 7.74609C22.1774 7.89608 21.9996 8.015 21.8039 8.09604C21.6082 8.17709 21.3985 8.21867 21.1867 8.2184Z" fill="white"/>
</svg>
