<svg width="33" height="33" viewBox="0 0 33 33" fill="none" xmlns="http://www.w3.org/2000/svg">
<path d="M28.4195 9.69095C28.0471 8.80752 27.5102 8.00698 26.8388 7.33412C26.1669 6.65925 25.3746 6.12294 24.5052 5.75436C23.6036 5.37064 22.6367 5.17423 21.6604 5.17653C20.2908 5.17653 18.9546 5.5608 17.7933 6.28663C17.5155 6.46027 17.2516 6.65098 17.0016 6.85876C16.7516 6.65098 16.4876 6.46027 16.2098 6.28663C15.0486 5.5608 13.7123 5.17653 12.3427 5.17653C11.3565 5.17653 10.4008 5.37009 9.49797 5.75436C8.62565 6.12439 7.83945 6.65667 7.16437 7.33412C6.49207 8.00622 5.95501 8.80695 5.58364 9.69095C5.00024 10.4392 5.00024 11.5867 5.00024 12.5914C5.00024 13.5393 5.18915 14.527 5.5642 15.5318C5.87812 16.3715 6.32817 17.2425 6.90323 18.122C7.81445 19.5139 9.06736 20.9656 10.6231 22.4372C13.2012 24.8766 15.7542 26.5616 15.8626 26.63L16.521 27.0626C16.8127 27.2533 17.1877 27.2533 17.4794 27.0626L18.1378 26.63C18.2462 26.5588 20.7965 24.8766 23.3773 22.4372C24.933 20.9656 26.1859 19.5139 27.0972 18.122C27.6722 17.2425 28.125 16.3715 28.4362 15.5318C28.8112 14.527 29.0002 13.5393 29.0002 12.5914C29.003 11.5867 28.8057 10.6103 28.4195 9.69095Z" fill="#937DC2"/>
</svg>
