<svg width="25" height="29" viewBox="0 0 25 29" fill="none" xmlns="http://www.w3.org/2000/svg">
<path fill-rule="evenodd" clip-rule="evenodd" d="M3.80589 11.2059C5.6804 9.33137 8.7196 9.33137 10.5941 11.2059L12 12.6118L13.4059 11.2059C15.2804 9.33137 18.3196 9.33137 20.1941 11.2059C22.0686 13.0804 22.0686 16.1196 20.1941 17.9941L12 26.1882L3.80589 17.9941C1.93137 16.1196 1.93137 13.0804 3.80589 11.2059Z" fill="#937DC2"/>
<circle cx="19" cy="8" r="6" fill="#C689C6"/>
<path d="M18.8778 12.1193C18.2926 12.1193 17.7699 12.0185 17.3097 11.8168C16.8523 11.6151 16.4901 11.3352 16.223 10.9773C15.9588 10.6165 15.8168 10.1989 15.7969 9.72443H17.1349C17.152 9.98295 17.2386 10.2074 17.3949 10.3977C17.554 10.5852 17.7614 10.7301 18.017 10.8324C18.2727 10.9347 18.5568 10.9858 18.8693 10.9858C19.2131 10.9858 19.517 10.9261 19.7812 10.8068C20.0483 10.6875 20.2571 10.5213 20.4077 10.3082C20.5582 10.0923 20.6335 9.84375 20.6335 9.5625C20.6335 9.26989 20.5582 9.01278 20.4077 8.79119C20.2599 8.56676 20.0426 8.39062 19.7557 8.26278C19.4716 8.13494 19.1278 8.07102 18.7244 8.07102H17.9872V6.99716H18.7244C19.0483 6.99716 19.3324 6.93892 19.5767 6.82244C19.8239 6.70597 20.017 6.54403 20.1562 6.33665C20.2955 6.12642 20.3651 5.88068 20.3651 5.59943C20.3651 5.32955 20.304 5.09517 20.1818 4.89631C20.0625 4.6946 19.892 4.53693 19.6705 4.4233C19.4517 4.30966 19.1932 4.25284 18.8949 4.25284C18.6108 4.25284 18.3452 4.3054 18.098 4.41051C17.8537 4.51278 17.6548 4.66051 17.5014 4.85369C17.348 5.04403 17.2656 5.27273 17.2543 5.53977H15.9801C15.9943 5.06818 16.1335 4.65341 16.3977 4.29545C16.6648 3.9375 17.017 3.65767 17.4545 3.45597C17.892 3.25426 18.3778 3.15341 18.9119 3.15341C19.4716 3.15341 19.9545 3.26278 20.3608 3.48153C20.7699 3.69744 21.0852 3.9858 21.3068 4.34659C21.5313 4.70739 21.642 5.10227 21.6392 5.53125C21.642 6.01989 21.5057 6.43466 21.2301 6.77557C20.9574 7.11648 20.5938 7.34517 20.1392 7.46165V7.52983C20.7188 7.6179 21.1676 7.84801 21.4858 8.22017C21.8068 8.59233 21.9659 9.05398 21.9631 9.60511C21.9659 10.0852 21.8324 10.5156 21.5625 10.8963C21.2955 11.277 20.9304 11.5767 20.4673 11.7955C20.0043 12.0114 19.4744 12.1193 18.8778 12.1193Z" fill="white"/>
</svg>
