<svg width="25" height="25" viewBox="0 0 25 25" fill="none" xmlns="http://www.w3.org/2000/svg">
<path d="M2.71216 3.74677C2.71216 3.08311 3.25016 2.5451 3.91382 2.5451H6.50086C7.08828 2.5451 7.58961 2.96979 7.68618 3.54922L8.57458 8.87966C8.66131 9.40002 8.39851 9.91609 7.92667 10.152L6.06632 11.0822C7.40774 14.4156 10.0684 17.0762 13.4017 18.4176L14.3319 16.5573C14.5678 16.0854 15.0839 15.8226 15.6043 15.9093L20.9347 16.7978C21.5141 16.8943 21.9388 17.3956 21.9388 17.9831V20.5701C21.9388 21.2338 21.4008 21.7718 20.7372 21.7718H18.3338C9.70622 21.7718 2.71216 14.7777 2.71216 6.1501V3.74677Z" fill="#937DC2"/>
</svg>
