<svg width="28" height="28" viewBox="0 0 28 28" fill="none" xmlns="http://www.w3.org/2000/svg">
<path d="M24.3268 0.544434H4.29905C2.6405 0.544434 0.794189 2.37447 0.794189 4.01295V24.1134C0.794189 25.7519 2.6405 27.5456 4.29905 27.5456L24.3268 27.5819C25.9854 27.5819 27.8317 25.7519 27.8317 24.1134V4.0493C27.8317 2.41081 25.9854 0.544434 24.3268 0.544434ZM22.2677 10.032C22.2802 10.2051 22.2802 10.3844 22.2802 10.5575C22.2802 15.9182 18.1495 22.0949 10.6015 22.0949C8.27331 22.0949 6.11407 21.4272 4.29905 20.2772C4.63076 20.3143 4.94995 20.3266 5.28792 20.3266C7.20934 20.3266 8.97429 19.6836 10.3825 18.5954C8.57999 18.5583 7.06539 17.3897 6.54592 15.7821C7.17804 15.8749 7.74758 15.8749 8.39849 15.7079C6.52088 15.3308 5.11268 13.6985 5.11268 11.7261V11.6766C5.65719 11.9796 6.29557 12.1651 6.96525 12.1898C6.40224 11.8199 5.94069 11.3179 5.6218 10.7289C5.30292 10.1398 5.13661 9.48193 5.13771 8.81392C5.13771 8.0596 5.33799 7.36711 5.69474 6.76736C7.71629 9.22818 10.7518 10.8358 14.1565 11.0089C13.5744 8.25745 15.6586 6.0254 18.162 6.0254C19.3449 6.0254 20.4089 6.51386 21.1599 7.30528C22.0862 7.13215 22.975 6.79209 23.7635 6.32837C23.4569 7.26818 22.8122 8.0596 21.9611 8.56042C22.7872 8.47386 23.5883 8.24509 24.3268 7.92976C23.7698 8.73973 23.0688 9.45695 22.2677 10.032Z" fill="white"/>
</svg>
